<?xml version="1.0" encoding="utf-8"?>
<!-- Generator: Adobe Illustrator 26.0.0, SVG Export Plug-In . SVG Version: 6.00 Build 0)  -->
<svg version="1.1" id="Layer_1" xmlns="http://www.w3.org/2000/svg" xmlns:xlink="http://www.w3.org/1999/xlink" x="0px" y="0px"
	 viewBox="0 0 50 50" style="enable-background:new 0 0 50 50;" xml:space="preserve">
<style type="text/css">
	.st0{fill:none;stroke:#000000;stroke-width:0.25;stroke-miterlimit:10;}
</style>
<g id="XMLID_00000093895956859569164630000009633593007795204492_">
	<g>
		<path d="M23.3,20.01V40h-0.89c-5.11-0.45-9.11-4.75-9.11-9.97V10C18.82,10,23.3,14.49,23.3,20.01z"/>
		<path d="M33.3,30.17c2.12,0.57,3.69,2.51,3.69,4.82c0,2.77-2.24,5.01-5,5.01h-5v-0.68v-4.33c0-2.76,2.24-5,5-5
			C32.44,29.99,32.88,30.05,33.3,30.17z"/>
	</g>
	<g>
		<polyline class="st0" points="23.3,20.01 23.3,40 22.41,40 		"/>
		<path class="st0" d="M26.99,34.99c0-2.76,2.24-5,5-5c0.45,0,0.89,0.06,1.31,0.18c2.12,0.57,3.69,2.51,3.69,4.82
			c0,2.77-2.24,5.01-5,5.01"/>
		<path class="st0" d="M13.3,10c5.52,0,10,4.49,10,10.01"/>
		<path class="st0" d="M13.3,30.03c0,5.22,4,9.52,9.11,9.97"/>
		<line class="st0" x1="13.3" y1="30.03" x2="13.3" y2="10"/>
		<polyline class="st0" points="26.99,34.99 26.99,39.32 26.99,40 31.99,40 		"/>
	</g>
</g>
</svg>
